<?xml version="1.0" standalone="no"?>
<!DOCTYPE svg PUBLIC "-//W3C//DTD SVG 20010904//EN"
 "http://www.w3.org/TR/2001/REC-SVG-20010904/DTD/svg10.dtd">
<svg version="1.0" xmlns="http://www.w3.org/2000/svg"
 width="1551.000000pt" height="1600.000000pt" viewBox="0 0 1551.000000 1600.000000"
 preserveAspectRatio="xMidYMid meet">

<g transform="translate(0.000000,1600.000000) scale(0.100000,-0.100000)"
fill="#000000" stroke="none">
<path d="M6980 13774 c-336 -23 -665 -64 -925 -114 -82 -16 -161 -31 -175 -34
-14 -2 -32 -7 -40 -10 -8 -3 -28 -7 -45 -10 -16 -3 -40 -7 -52 -10 -13 -3 -32
-8 -43 -11 -11 -3 -29 -7 -40 -10 -11 -3 -29 -7 -40 -10 -11 -3 -29 -7 -40 -9
-11 -3 -24 -7 -28 -10 -5 -3 -22 -8 -38 -11 -16 -3 -40 -8 -53 -11 -13 -3 -32
-9 -41 -14 -10 -5 -31 -12 -49 -15 -17 -3 -55 -15 -83 -26 -29 -11 -54 -20
-55 -20 -2 1 -4 1 -5 0 -2 0 -11 -2 -21 -4 -69 -13 -545 -201 -744 -293 -70
-33 -148 -68 -172 -78 -24 -10 -49 -23 -55 -29 -6 -6 -56 -34 -111 -62 -179
-91 -643 -372 -653 -395 -2 -4 -10 -8 -18 -8 -8 0 -14 -4 -14 -10 0 -5 -5 -10
-11 -10 -6 0 -17 -6 -24 -12 -33 -30 -45 -38 -54 -38 -5 0 -11 -4 -13 -8 -1
-5 -37 -33 -78 -62 -70 -49 -123 -90 -280 -217 -80 -65 -117 -96 -162 -137
-19 -17 -57 -51 -84 -75 -80 -71 -406 -393 -443 -436 -18 -22 -56 -65 -85 -95
-44 -47 -164 -187 -216 -254 -8 -10 -24 -29 -35 -42 -18 -21 -33 -40 -75 -93
-8 -11 -22 -29 -30 -41 -8 -12 -42 -59 -75 -104 -81 -108 -235 -333 -235 -342
0 -4 -11 -22 -25 -40 -14 -18 -25 -37 -25 -43 0 -6 -4 -11 -9 -11 -5 0 -11 -8
-15 -17 -3 -10 -15 -31 -25 -48 -26 -39 -46 -72 -65 -110 -9 -16 -27 -48 -40
-70 -33 -56 -267 -521 -289 -576 -10 -24 -25 -58 -34 -76 -8 -17 -15 -34 -14
-38 1 -3 -5 -19 -14 -35 -8 -17 -22 -43 -31 -60 -8 -16 -13 -30 -10 -30 3 0
-2 -17 -11 -37 -31 -76 -36 -88 -39 -98 -1 -5 -8 -23 -15 -40 -7 -16 -13 -32
-14 -35 -1 -3 -4 -12 -8 -20 -57 -143 -201 -645 -242 -846 -34 -162 -32 -155
-39 -195 -3 -19 -8 -45 -11 -59 -3 -14 -8 -41 -11 -60 -3 -19 -7 -44 -9 -55
-21 -132 -23 -143 -30 -205 -3 -25 -8 -63 -11 -85 -26 -199 -48 -576 -48 -830
0 -180 14 -474 29 -625 16 -160 20 -198 29 -265 3 -22 7 -56 10 -75 3 -19 7
-49 10 -66 3 -17 8 -48 12 -70 3 -21 7 -48 9 -59 2 -11 6 -37 10 -59 4 -21 9
-48 11 -60 2 -11 7 -37 10 -56 28 -168 123 -525 212 -795 36 -110 66 -202 67
-205 1 -3 7 -18 13 -33 7 -16 12 -32 12 -36 0 -4 7 -22 16 -40 9 -17 17 -37
18 -44 1 -7 8 -22 14 -35 7 -12 10 -22 7 -22 -3 0 2 -11 11 -25 9 -14 13 -25
10 -25 -4 0 -1 -12 7 -28 15 -27 39 -82 73 -161 48 -110 300 -608 315 -621 8
-7 35 -58 50 -93 6 -15 14 -27 19 -27 4 0 10 -8 14 -17 6 -20 19 -41 53 -90
13 -17 23 -34 23 -38 0 -3 35 -56 77 -118 205 -300 349 -489 538 -705 49 -57
108 -124 130 -150 48 -56 404 -406 490 -483 93 -82 174 -151 240 -205 33 -26
66 -53 72 -58 17 -15 42 -34 148 -113 50 -37 95 -71 100 -76 13 -11 309 -213
350 -238 17 -11 38 -22 48 -25 9 -4 17 -10 17 -14 0 -4 8 -10 18 -14 9 -3 31
-15 47 -26 17 -11 39 -24 50 -30 11 -5 27 -14 35 -20 91 -58 542 -290 671
-343 24 -11 59 -26 78 -35 19 -10 37 -16 40 -15 3 0 20 -6 36 -14 55 -29 65
-33 75 -33 6 0 29 -9 53 -19 40 -18 76 -33 87 -36 21 -5 60 -19 85 -30 176
-76 842 -258 1065 -290 24 -4 47 -8 50 -10 3 -1 25 -6 50 -9 25 -3 56 -8 70
-11 14 -3 43 -7 65 -10 38 -5 87 -12 145 -21 14 -2 50 -6 80 -9 30 -3 73 -8
95 -10 35 -4 114 -11 225 -20 70 -5 427 -20 495 -20 126 0 494 18 605 29 30 3
80 8 110 11 30 3 73 8 95 11 22 2 60 7 85 10 25 3 56 7 70 9 14 3 43 7 65 10
22 3 51 7 65 10 13 3 40 7 60 10 20 3 47 8 60 10 14 3 41 8 60 11 207 32 633
144 910 239 91 31 170 58 175 59 6 2 24 9 40 15 17 7 35 14 40 15 20 6 90 33
180 72 17 7 48 20 70 29 22 9 54 23 70 30 260 118 352 164 546 271 54 30 102
54 108 54 6 0 11 4 11 9 0 5 12 14 28 20 15 6 41 20 57 31 53 34 80 49 98 56
9 3 17 10 17 15 0 5 4 9 9 9 24 0 527 351 624 436 6 6 32 26 57 45 39 30 75
60 114 94 6 6 43 37 81 70 135 114 440 412 565 550 136 149 233 262 282 327
10 13 48 61 84 108 94 120 228 308 304 425 36 55 68 102 73 103 4 2 7 10 7 18
0 8 4 14 9 14 5 0 11 8 15 17 3 10 14 32 24 48 109 174 388 701 392 740 1 6
12 29 26 53 14 23 22 42 19 42 -4 0 3 17 14 38 52 98 235 608 291 812 7 25 19
64 26 87 7 23 16 52 18 65 5 22 10 42 21 88 10 41 16 66 20 85 3 11 7 31 10
45 4 14 8 36 11 50 2 14 7 36 11 50 3 14 7 30 9 35 2 11 14 70 19 100 11 59
16 92 19 110 2 11 6 34 10 51 3 17 8 48 11 70 3 21 8 50 10 64 2 14 7 50 10
80 3 30 8 64 10 75 2 11 7 49 10 85 3 36 8 85 11 110 24 199 36 640 24 911
-11 261 -16 338 -25 399 -2 19 -7 67 -10 105 -4 39 -8 84 -11 100 -2 17 -6 50
-9 75 -3 25 -7 52 -10 60 -2 8 -7 38 -10 65 -3 28 -7 61 -10 75 -3 14 -8 37
-10 53 -8 46 -16 91 -21 112 -2 11 -6 34 -9 50 -10 50 -17 84 -30 145 -4 14
-8 34 -10 45 -9 39 -15 65 -20 85 -3 11 -7 29 -10 40 -3 11 -7 28 -10 38 -17
62 -26 100 -31 120 -29 134 -239 740 -289 832 -7 14 -13 29 -13 33 0 5 -7 25
-17 45 -10 20 -26 55 -36 77 -106 238 -285 578 -410 776 -27 43 -49 83 -49 89
0 5 -4 10 -10 10 -5 0 -10 7 -10 15 0 8 -4 15 -10 15 -5 0 -10 5 -10 10 0 19
-289 428 -387 547 -10 12 -27 33 -38 48 -11 14 -29 36 -40 49 -207 245 -255
297 -480 521 -156 156 -244 238 -340 320 -26 22 -57 49 -70 60 -70 60 -203
164 -327 256 -62 46 -114 87 -116 92 -2 4 -8 7 -14 7 -5 0 -16 6 -23 13 -33
29 -45 37 -55 37 -5 0 -10 5 -10 10 0 6 -7 10 -15 10 -8 0 -15 5 -15 10 0 6
-7 10 -15 10 -8 0 -15 5 -15 10 0 6 -5 10 -10 10 -6 0 -43 22 -83 48 -347 234
-768 450 -1237 635 -187 74 -430 159 -430 150 0 -3 -7 0 -15 7 -8 7 -15 10
-15 7 0 -4 -19 1 -42 9 -24 9 -54 18 -67 20 -13 3 -32 9 -43 15 -10 5 -18 7
-18 5 0 -3 -12 -1 -27 5 -16 6 -36 13 -45 15 -10 2 -28 6 -40 10 -13 3 -34 7
-48 10 -14 3 -43 10 -65 16 -53 15 -56 16 -82 22 -47 12 -69 17 -103 22 -19 3
-44 8 -55 11 -24 8 -31 10 -70 16 -560 97 -768 117 -1265 121 -206 2 -400 2
-430 0z m1528 -262 c4 -27 -74 -205 -105 -238 -40 -43 -253 -491 -253 -532 0
-8 21 -12 58 -13 64 0 107 -13 82 -23 -8 -3 -46 -14 -84 -24 -50 -12 -74 -24
-87 -42 -39 -54 -115 -435 -96 -484 5 -11 25 -16 79 -18 82 -3 86 -10 45 -73
-62 -95 -193 -84 -212 17 -6 33 -8 34 -88 52 -185 41 -404 132 -484 201 l-41
35 -76 -102 c-139 -190 -194 -306 -203 -435 -5 -61 -9 -73 -23 -73 -30 0 -44
29 -43 85 3 114 82 275 225 454 76 95 77 96 60 121 -52 80 -66 116 -67 172 0
127 94 179 327 182 l116 1 219 215 c297 293 557 528 596 539 42 12 51 9 55
-17z m-2368 -574 c0 -25 -157 -208 -179 -208 -15 0 -1 28 52 100 73 100 127
146 127 108z m482 -240 c-7 -35 -17 -88 -23 -118 -13 -63 -6 -253 12 -324 22
-90 64 -85 130 16 41 62 41 63 36 26 -7 -43 -67 -139 -101 -162 -96 -62 -151
12 -165 223 l-6 96 -24 -65 c-68 -187 -179 -350 -239 -350 -23 0 -42 66 -42
147 0 138 59 369 114 452 41 60 163 131 228 131 18 0 40 5 48 10 10 6 19 5 29
-5 12 -11 12 -25 3 -77z m2014 7 c4 -8 -15 -49 -43 -92 -27 -43 -62 -100 -78
-128 -15 -27 -35 -61 -44 -75 -9 -13 34 16 95 65 228 184 315 210 302 90 -7
-57 -49 -115 -84 -115 -24 0 -25 3 -19 33 8 35 8 36 6 55 -3 36 -80 -4 -212
-110 -102 -82 -170 -160 -215 -250 -13 -27 -36 -54 -52 -61 -36 -19 -81 -29
-92 -22 -5 3 16 44 46 91 99 151 222 369 213 375 -13 8 87 138 114 149 34 13
57 12 63 -5z m724 -12 c0 -5 -32 -45 -71 -90 l-70 -83 26 -10 c81 -31 125 -54
125 -66 0 -18 -17 -18 -68 0 -22 8 -60 17 -84 21 l-44 7 -90 -114 c-175 -218
-223 -312 -179 -348 18 -15 76 -2 161 35 68 30 83 31 59 5 -23 -26 -146 -87
-191 -96 -75 -14 -124 21 -124 89 1 75 56 170 201 341 44 54 79 99 78 101 -2
1 -29 7 -59 12 -72 11 -81 37 -18 53 56 15 170 75 205 108 33 30 143 57 143
35z m-3366 -148 c-1 -39 -8 -113 -17 -165 -20 -113 -22 -255 -4 -290 16 -32
61 -38 89 -13 12 10 43 52 71 93 41 62 48 70 43 43 -9 -54 -49 -126 -96 -175
-41 -42 -51 -48 -87 -48 -33 0 -46 6 -62 26 -47 60 -57 193 -32 429 12 112 17
132 38 153 13 13 31 22 41 20 14 -3 17 -15 16 -73z m-291 -17 c37 -49 32 -168
-6 -168 -7 0 -19 16 -26 36 -30 84 -83 12 -143 -196 -26 -94 -32 -132 -32
-210 0 -52 3 -107 7 -121 5 -21 0 -38 -26 -75 -50 -77 -57 -68 -63 86 -3 74
-9 185 -14 245 -6 61 -10 120 -10 133 0 13 -4 20 -10 17 -16 -10 -12 130 4
170 8 18 23 38 35 44 30 17 41 -12 42 -116 1 -48 5 -122 8 -163 l7 -75 12 45
c52 184 108 326 142 360 26 26 47 23 73 -12z m-539 -206 c19 -38 30 -143 18
-185 l-10 -35 40 6 c54 7 48 -17 -9 -38 -45 -17 -121 -65 -170 -107 l-31 -28
9 -67 c11 -93 25 -141 50 -172 26 -33 59 -33 99 0 47 40 76 105 100 227 16 81
34 74 28 -10 -7 -88 -55 -188 -123 -258 -54 -55 -115 -89 -143 -80 -59 18
-111 231 -108 435 1 103 4 121 28 170 25 50 63 89 75 76 3 -2 0 -28 -7 -58 -6
-29 -10 -83 -8 -119 l3 -67 64 39 c35 21 66 40 68 43 8 7 -18 137 -34 172 -14
29 -21 34 -40 29 -30 -7 -30 15 0 42 43 39 75 35 101 -15z m4450 12 c26 -10
19 -22 -26 -43 -41 -18 -163 -109 -156 -116 1 -2 35 -14 75 -27 l72 -24 45 45
c67 70 93 132 60 145 -8 3 -12 11 -8 17 8 13 69 5 90 -12 38 -32 -12 -126 -97
-184 -24 -16 -46 -31 -48 -32 -3 -2 6 -14 19 -28 36 -39 17 -41 -57 -7 -38 17
-99 36 -136 43 l-68 13 -55 -55 c-69 -68 -109 -144 -95 -182 7 -19 21 -29 50
-37 54 -14 111 0 222 55 91 46 108 47 64 2 -89 -89 -359 -119 -437 -49 -38 33
-6 116 88 227 159 187 311 282 398 249z m-5013 -256 c0 -2 4 -46 8 -99 7 -93
10 -102 74 -232 76 -155 132 -226 165 -208 24 13 40 56 49 129 7 65 23 50 23
-24 0 -111 -46 -194 -106 -194 -49 0 -101 60 -172 197 l-60 116 -4 -199 c-6
-246 -23 -304 -90 -304 -64 0 -116 103 -153 302 -10 53 -23 96 -28 95 -13 -3
-39 140 -31 173 5 25 51 80 65 80 12 0 17 -24 38 -170 31 -209 85 -375 122
-375 54 0 67 401 18 571 -15 50 -6 89 28 120 22 20 50 32 54 22z m5697 -35
c57 -35 116 -174 180 -419 l37 -142 140 104 c323 241 564 387 730 441 146 47
275 32 310 -38 21 -40 19 -108 -5 -146 -21 -36 -80 -78 -122 -88 -35 -9 -36 5
-2 36 34 31 63 95 64 137 0 24 -9 42 -30 64 -28 28 -36 30 -80 26 -62 -6 -192
-68 -324 -155 -167 -109 -655 -477 -656 -494 0 -9 22 -104 49 -211 67 -268
136 -436 214 -524 52 -60 81 -41 113 72 19 66 34 83 34 39 0 -23 2 -22 40 19
22 23 67 63 100 86 32 24 58 45 57 46 -1 1 -29 -4 -62 -11 -113 -27 -286 -40
-341 -26 -90 23 -96 49 -26 111 97 86 359 190 489 193 48 2 67 -2 90 -19 15
-11 41 -24 56 -28 34 -8 151 -122 141 -137 -8 -13 -123 -69 -143 -69 -19 0
-122 -63 -208 -127 -163 -122 -164 -178 -3 -176 65 1 73 0 57 -12 -55 -41
-243 -21 -259 26 -2 7 -14 -16 -27 -50 -73 -200 -202 -10 -382 562 -32 105
-60 192 -62 193 -1 2 -34 -18 -72 -43 -149 -96 -307 -163 -384 -163 -50 0
-101 29 -123 70 -17 29 -19 49 -15 125 9 157 116 441 222 591 75 105 107 90
35 -16 -177 -261 -260 -647 -145 -676 46 -12 112 2 185 40 88 45 270 164 270
178 0 5 -25 87 -56 181 -64 195 -121 325 -158 362 -54 54 -119 19 -183 -99
-36 -66 -63 -94 -63 -64 0 27 49 115 90 161 78 88 160 113 228 70z m-6228
-318 c0 -36 60 -294 91 -390 39 -123 40 -125 82 -146 151 -77 355 -261 420
-379 70 -127 84 -258 37 -356 -91 -187 -289 63 -516 650 l-42 109 -4 -129 c-5
-151 -21 -204 -62 -204 -14 0 -33 10 -44 25 l-20 25 -4 -65 c-3 -50 -9 -70
-28 -90 -53 -56 -114 -24 -254 138 -42 48 -76 86 -76 83 0 -2 14 -62 31 -132
19 -78 33 -169 36 -230 5 -94 4 -103 -16 -123 -58 -58 -138 11 -227 196 -31
65 -65 125 -75 133 -20 17 -69 133 -69 164 0 29 38 88 53 83 6 -2 39 -71 72
-154 66 -162 125 -271 173 -317 l30 -28 12 22 c33 61 -50 429 -119 534 -30 46
-33 101 -8 139 28 43 52 35 67 -20 7 -27 16 -62 22 -80 20 -69 207 -293 272
-328 l38 -20 19 24 c29 36 24 98 -16 196 -83 200 -111 387 -68 455 12 19 29
49 37 66 7 17 30 44 50 60 20 16 36 33 36 38 0 15 42 56 57 56 7 0 13 -2 13
-5z m-1255 -362 c200 -440 518 -995 600 -1049 51 -34 64 0 55 139 -3 42 -1 77
3 77 21 0 41 -79 41 -165 1 -111 -21 -168 -68 -173 -23 -3 -38 6 -80 50 -107
110 -308 439 -477 782 -54 109 -108 206 -120 214 -25 17 -79 130 -79 165 0 31
39 86 61 87 3 0 32 -57 64 -127z m4990 63 c311 -45 607 -145 881 -297 115 -64
308 -190 359 -234 35 -31 43 -32 -137 18 -457 128 -1013 128 -1533 1 -124 -30
-347 -96 -342 -101 2 -2 35 3 74 11 89 19 322 52 478 67 158 16 611 16 750 1
536 -61 931 -218 1186 -472 121 -121 179 -239 195 -398 10 -112 -27 -278 -80
-353 -14 -20 -15 -15 -15 70 0 50 -3 108 -7 129 -44 259 -197 431 -444 502
-50 14 -117 23 -201 27 -214 10 -364 -23 -604 -132 -288 -130 -545 -200 -865
-235 -137 -15 -483 -13 -630 4 -288 35 -595 104 -930 211 -113 36 -243 72
-289 80 -110 20 -264 19 -429 -2 -115 -14 -135 -14 -143 -2 -5 8 -9 17 -9 21
0 10 189 178 308 273 413 331 884 586 1317 714 207 61 348 87 620 115 76 8
391 -4 490 -18z m3835 -642 c31 -9 103 -17 165 -18 83 -2 119 -7 148 -21 20
-10 37 -22 37 -26 0 -7 -33 -18 -155 -51 -22 -6 -44 -15 -49 -19 -4 -4 8 -29
28 -55 37 -48 54 -89 42 -101 -4 -4 -36 26 -72 66 -78 84 -56 83 -262 15 -149
-50 -236 -90 -270 -127 -48 -51 -16 -78 124 -106 47 -10 81 -20 78 -24 -13
-13 -140 -7 -194 9 -65 19 -110 61 -110 102 0 78 119 149 370 222 58 17 112
33 120 36 11 4 2 17 -34 48 -29 26 -46 48 -42 55 9 14 10 14 76 -5z m-8672
-298 c39 -36 92 -122 92 -150 0 -19 1 -18 23 2 47 44 64 20 22 -30 -32 -38
-62 -95 -85 -164 l-18 -52 50 -63 c97 -122 159 -149 199 -86 17 27 20 43 15
107 -2 42 -16 107 -30 148 -25 72 -23 87 7 54 34 -37 50 -104 51 -212 1 -98
-1 -109 -31 -172 -49 -103 -90 -101 -198 9 -119 120 -226 294 -240 387 -7 45
9 116 25 116 5 0 14 -19 20 -42 6 -24 30 -75 52 -115 l41 -72 37 72 c41 82 41
85 -23 154 -55 60 -89 77 -109 56 -23 -22 -28 -4 -13 41 23 65 53 69 113 12z
m9211 -74 c49 -42 49 -62 -2 -62 -36 0 -117 34 -117 49 0 12 49 51 64 51 6 0
31 -17 55 -38z m-236 -54 c9 -11 17 -24 17 -30 0 -17 -67 -37 -152 -47 -185
-21 -319 -62 -362 -110 -42 -46 20 -96 151 -121 81 -16 73 -35 -11 -27 -143
14 -226 63 -226 132 0 80 112 140 370 198 85 19 164 33 175 30 11 -3 28 -14
38 -25z m-9618 7 c125 -33 217 -120 296 -280 27 -55 61 -145 76 -200 24 -89
27 -119 27 -270 1 -188 -9 -246 -65 -365 l-30 -65 62 -59 c129 -122 293 -225
333 -210 9 3 18 21 22 40 9 50 24 52 24 2 -1 -62 -16 -120 -36 -135 -63 -46
-183 21 -385 214 -60 58 -89 79 -96 72 -6 -6 -27 -16 -48 -23 -80 -28 -171 28
-225 137 -31 64 -60 188 -60 261 0 35 -8 51 -48 101 -27 33 -93 119 -147 190
-103 136 -185 235 -196 235 -11 0 -58 -127 -80 -214 -29 -116 -37 -356 -15
-451 22 -92 57 -150 114 -186 76 -48 172 -36 266 36 39 30 46 31 46 7 0 -48
-129 -141 -225 -163 -72 -16 -118 -5 -166 38 -78 71 -109 174 -109 370 0 207
33 369 109 529 38 79 38 80 20 103 -21 25 -25 75 -9 115 13 36 34 32 60 -9 12
-19 23 -35 24 -35 1 0 36 33 77 74 100 98 196 146 309 155 9 0 43 -6 75 -14z
m6678 -85 c114 -43 210 -133 272 -256 35 -70 31 -74 -92 -74 -170 0 -289 43
-383 139 -55 56 -125 179 -111 194 31 32 226 30 314 -3z m-3813 -133 c121 -69
221 -203 249 -335 21 -102 5 -312 -24 -312 -24 0 -140 84 -200 146 -143 144
-192 345 -130 532 6 17 34 9 105 -31z m734 -134 c44 -24 98 -64 142 -108 150
-148 204 -356 153 -593 l-11 -52 -31 16 c-176 89 -333 279 -373 450 -26 110
-4 324 33 324 8 0 47 -17 87 -37z m6273 13 c20 -17 25 -28 18 -35 -10 -10
-304 -61 -352 -61 -49 0 -20 -18 40 -24 81 -10 238 -42 302 -62 49 -16 85 -39
85 -55 0 -15 -73 -46 -224 -93 -186 -59 -250 -87 -271 -119 -31 -48 8 -82 128
-113 85 -21 78 -39 -11 -31 -122 12 -202 70 -202 148 0 25 10 42 44 74 46 44
95 65 295 125 90 27 102 34 89 46 -28 28 -158 45 -390 51 -197 5 -231 8 -257
24 -58 35 -50 39 134 59 135 16 357 57 364 68 10 16 34 20 108 21 62 1 76 -2
100 -23z m-7740 -1 c187 -35 362 -176 462 -372 11 -23 21 -44 21 -47 0 -12
-114 -26 -219 -26 -274 0 -478 113 -590 328 l-42 82 26 10 c102 39 223 48 342
25z m3818 -25 c43 -11 99 -32 124 -47 96 -56 209 -187 254 -296 l15 -35 -30
-6 c-54 -11 -211 -6 -279 8 -126 27 -244 102 -314 200 -50 70 -90 155 -78 167
12 12 101 27 169 28 33 0 96 -8 139 -19z m1097 -132 c7 -24 13 -92 13 -154 0
-108 -1 -112 -38 -188 -45 -90 -119 -169 -210 -222 -33 -19 -61 -33 -63 -31
-9 9 -24 115 -24 171 1 148 54 281 148 367 47 43 132 97 154 99 4 0 13 -19 20
-42z m-2805 -13 c106 -34 194 -88 267 -165 73 -78 120 -162 146 -264 22 -88
38 -276 23 -276 -19 0 -119 37 -173 65 -195 98 -326 256 -365 440 -15 72 -20
206 -8 218 10 11 28 8 110 -18z m831 -69 c217 -59 368 -211 440 -446 39 -124
39 -120 -13 -120 -68 0 -191 28 -272 62 -147 61 -259 161 -325 291 -33 66 -71
204 -63 226 4 11 22 13 93 8 48 -4 111 -13 140 -21z m2741 -178 c134 -40 281
-139 426 -286 253 -256 413 -613 465 -1037 16 -129 14 -450 -4 -597 -91 -731
-434 -1488 -1045 -2303 -179 -239 -246 -363 -303 -561 -33 -116 -33 -307 0
-379 13 -27 35 -62 49 -77 15 -15 24 -30 22 -33 -12 -11 -116 -25 -189 -25
-450 0 -906 367 -1224 984 -76 148 -146 244 -246 339 -91 86 -162 134 -255
171 -79 33 -79 39 0 32 147 -14 347 -76 470 -145 218 -122 464 -112 600 24 78
78 178 275 216 425 20 78 20 81 2 118 -13 26 -40 51 -95 87 -42 27 -77 52 -78
55 0 3 60 5 133 5 104 0 142 4 180 18 54 21 53 20 61 153 3 51 10 105 16 120
17 44 59 83 125 116 85 43 127 79 158 136 53 97 44 214 -29 404 -68 176 -95
348 -75 478 7 41 34 139 61 218 61 177 84 265 105 407 9 60 18 111 20 113 5 5
41 -115 61 -203 9 -41 18 -142 21 -245 6 -205 -13 -369 -72 -608 -37 -152 -45
-253 -24 -327 7 -22 12 -72 12 -111 0 -99 -32 -164 -119 -241 -84 -74 -97 -97
-128 -218 -54 -218 -81 -450 -70 -623 3 -62 8 -111 10 -110 1 2 8 35 14 73 45
287 203 763 410 1235 112 253 184 492 227 747 27 166 25 502 -5 640 -24 112
-70 250 -109 328 -80 159 -224 329 -356 417 l-68 45 39 49 c152 192 364 261
591 192z m-6229 17 c0 -3 -38 -82 -84 -175 -270 -544 -417 -1128 -391 -1555
12 -204 20 -229 29 -90 37 609 203 1100 538 1593 39 56 73 102 77 102 12 0
106 -207 134 -295 66 -205 87 -344 87 -571 0 -275 -37 -494 -135 -789 -69
-211 -148 -392 -310 -715 -167 -332 -223 -502 -325 -981 -17 -79 -32 -145 -35
-147 -2 -2 -28 29 -58 70 -519 702 -676 1430 -465 2158 130 450 435 936 817
1303 90 86 121 110 121 92z m4804 -170 c9 -32 16 -95 16 -140 0 -151 -47 -262
-155 -370 -70 -70 -193 -151 -207 -137 -18 18 -30 190 -19 270 20 152 69 251
170 344 60 55 160 113 172 100 5 -4 15 -34 23 -67z m-3496 -30 c35 -8 78 -23
97 -33 l35 -17 -26 -40 c-70 -105 -175 -188 -284 -225 -65 -22 -200 -29 -265
-15 -73 16 -165 49 -165 58 0 21 187 194 240 222 117 62 244 79 368 50z m7027
-6 c39 -6 102 -10 141 -10 58 1 76 -3 104 -21 57 -39 92 -92 97 -145 5 -42 2
-51 -22 -76 -16 -15 -53 -35 -84 -45 -82 -25 -292 -21 -430 7 -116 25 -125 22
-117 -37 3 -23 1 -32 -7 -29 -15 5 -21 61 -9 84 8 13 2 22 -29 45 -65 47 -93
110 -73 163 23 58 248 92 429 64z m-6098 -246 l22 -8 -24 -58 c-54 -135 -161
-260 -272 -320 -106 -57 -295 -83 -428 -59 -51 10 -49 20 13 126 94 159 247
283 398 321 63 16 249 15 291 -2z m1731 -159 c10 -302 -172 -539 -487 -634
l-64 -19 6 92 c19 275 143 490 341 588 78 38 170 70 191 65 6 -2 11 -43 13
-92z m-901 20 c10 -28 -24 -159 -62 -238 -66 -134 -186 -243 -325 -294 -74
-27 -194 -51 -259 -52 l-43 0 7 38 c11 57 61 180 102 251 53 90 154 189 239
233 78 41 132 58 219 68 99 12 115 11 122 -6z m-1791 -340 c-34 -335 -297
-583 -648 -611 l-77 -6 16 69 c50 223 177 417 337 513 99 59 221 94 350 100
l29 1 -7 -66z m3879 -182 c126 -46 294 -184 335 -275 24 -51 24 -60 4 -102
-36 -77 -113 -68 -217 25 -151 134 -274 205 -417 241 -70 18 -103 21 -190 16
-58 -3 -113 -8 -122 -12 -11 -4 -18 -3 -18 4 0 17 153 88 240 111 105 28 298
24 385 -8z m-2860 -102 c4 -6 -31 -28 -82 -52 -392 -183 -756 -464 -1040 -803
-256 -305 -480 -703 -611 -1085 -62 -182 -59 -185 25 -20 362 717 935 1297
1607 1630 200 99 230 110 239 86 17 -43 29 -253 24 -395 -13 -338 -109 -609
-333 -943 -116 -172 -193 -271 -549 -698 -463 -556 -557 -695 -680 -1000 -118
-293 -168 -566 -168 -900 0 -208 21 -403 58 -540 8 -30 12 -56 9 -59 -2 -3
-50 40 -105 95 -483 478 -751 1045 -830 1754 -18 162 -15 514 5 679 103 844
522 1516 1156 1858 266 143 732 307 1060 371 163 33 206 37 215 22z m538 -281
c50 -13 101 -60 121 -108 49 -124 25 -303 -80 -591 -29 -80 -62 -193 -73 -252
-82 -424 -12 -1082 160 -1513 40 -99 68 -147 55 -94 -15 67 -57 328 -73 459
-14 111 -18 220 -18 470 0 295 2 337 23 453 37 202 94 377 124 377 16 0 18 -9
18 -69 0 -135 54 -335 118 -439 16 -26 55 -81 86 -122 242 -320 323 -834 221
-1405 -31 -174 -37 -273 -24 -424 18 -235 93 -457 197 -588 74 -92 52 -96 -97
-17 -577 304 -908 794 -1069 1584 -49 237 -57 312 -56 510 2 381 105 815 260
1095 59 107 137 266 148 303 12 37 -8 52 -63 45 -82 -9 -157 43 -183 128 -22
76 27 166 107 194 49 17 51 17 98 4z m1900 -95 c147 -117 372 -213 549 -232
35 -4 62 -11 62 -17 -3 -16 -93 -46 -160 -52 -190 -18 -441 118 -518 280 -24
52 -33 87 -21 87 3 0 42 -30 88 -66z m-2491 -1479 c-4 -123 12 -401 33 -561
87 -664 335 -1213 726 -1603 434 -433 1087 -674 1705 -631 321 23 605 94 991
246 224 88 366 155 838 391 517 259 723 356 955 448 284 113 535 183 780 216
122 17 419 17 535 1 105 -15 296 -60 309 -73 12 -11 10 -11 -156 -43 -248 -46
-574 -168 -807 -300 -251 -142 -393 -252 -753 -583 -306 -282 -511 -460 -721
-627 -654 -521 -1296 -873 -1906 -1045 -926 -262 -1826 -120 -2606 410 -560
380 -927 972 -1011 1631 -20 158 -15 474 9 603 63 335 200 629 407 878 89 107
87 111 93 -210 5 -300 18 -426 68 -677 50 -247 125 -475 228 -691 366 -769
1050 -1210 2005 -1295 123 -11 170 -8 70 5 -91 11 -317 70 -459 119 -533 184
-961 501 -1237 916 -264 398 -430 975 -431 1500 -1 263 27 453 95 670 57 181
187 416 226 408 15 -3 17 -17 14 -103z m2896 -4865 c3 -24 -5 -44 -27 -75 -16
-23 -64 -106 -105 -185 l-74 -144 33 -93 c60 -167 115 -243 168 -229 45 11 76
109 77 240 0 66 2 77 14 67 8 -7 19 -34 26 -60 26 -111 -64 -304 -154 -327
-65 -16 -147 73 -203 220 l-28 73 -108 -190 c-126 -221 -157 -291 -157 -347 0
-34 -3 -41 -17 -38 -26 5 -29 79 -7 137 17 44 36 79 197 356 39 66 70 130 69
143 -3 34 -43 123 -53 116 -12 -7 -46 51 -54 93 -5 28 -1 43 21 74 46 67 72
48 130 -98 16 -40 31 -73 34 -73 3 0 38 72 79 161 87 187 107 222 124 216 7
-2 13 -18 15 -37z m-3156 -118 c15 -15 -15 -50 -118 -135 -104 -86 -199 -184
-239 -246 -27 -40 -28 -44 -12 -56 64 -46 402 147 503 287 43 60 83 82 135 73
55 -9 61 -31 18 -67 -86 -74 -108 -99 -152 -186 -146 -281 -125 -372 63 -277
74 37 90 34 39 -9 -69 -59 -178 -92 -242 -75 -69 18 -84 102 -38 204 10 22 35
76 55 119 29 63 33 76 18 65 -188 -136 -308 -200 -389 -207 -95 -8 -133 14
-133 77 0 54 44 114 161 222 54 50 96 96 93 101 -7 10 73 84 120 111 33 19 99
18 118 -1z m1518 -60 c0 -29 -86 -102 -119 -102 -6 0 -11 20 -11 45 0 44 0 44
48 59 64 20 82 20 82 -2z m995 -62 c24 -26 17 -150 -12 -208 l-20 -41 39 -6
c21 -4 38 -10 38 -15 0 -9 -36 -20 -68 -20 -32 0 -239 -69 -251 -84 -16 -20
-41 -132 -41 -188 0 -69 19 -98 65 -98 80 0 145 50 228 177 58 89 62 93 65 65
4 -44 -22 -88 -97 -163 -85 -85 -195 -141 -285 -147 -76 -5 -88 6 -94 87 -8
110 78 396 146 486 38 50 94 95 118 95 20 0 17 -14 -11 -55 -22 -33 -49 -97
-70 -164 -7 -22 -5 -23 16 -17 13 4 51 14 84 22 33 9 64 19 68 23 13 13 26
124 19 166 -6 30 -13 40 -30 45 -34 8 -31 20 8 41 44 24 63 24 85 -1z m-1790
-50 c12 -19 -50 -133 -128 -238 -43 -56 -77 -104 -77 -107 0 -2 71 51 158 119
159 125 222 166 254 166 33 0 22 -72 -33 -218 -70 -185 -81 -225 -77 -280 3
-39 7 -49 29 -59 35 -17 75 -3 154 51 83 57 85 59 85 46 0 -22 -93 -110 -143
-135 -98 -49 -195 -24 -226 59 -20 53 -4 128 65 287 58 135 62 149 40 149 -34
0 -272 -204 -409 -349 -42 -45 -81 -76 -100 -82 -39 -11 -97 -12 -97 -1 0 4
16 24 36 43 88 84 301 386 285 402 -12 12 92 144 117 150 32 9 61 7 67 -3z
m1245 -50 c12 -12 20 -33 20 -52 -1 -43 -33 -114 -59 -128 -23 -12 -24 -12
-21 46 3 74 -57 97 -133 51 -52 -31 -77 -72 -77 -125 0 -60 23 -95 103 -154
92 -68 110 -108 82 -178 -4 -13 2 -15 35 -12 56 6 51 -14 -9 -32 -26 -8 -69
-30 -94 -49 -65 -49 -146 -77 -242 -83 -127 -8 -141 22 -33 75 35 17 110 42
168 55 130 29 137 41 60 107 -127 108 -150 133 -161 170 -10 32 -9 46 5 83 33
85 133 176 246 223 68 28 85 28 110 3z m-572 -74 c5 -26 -24 -98 -56 -139 -15
-19 -53 -85 -85 -148 -49 -94 -59 -124 -60 -169 -2 -50 0 -55 26 -68 25 -12
35 -12 72 3 24 9 73 39 110 66 73 56 93 58 50 7 -64 -78 -170 -138 -243 -138
-91 0 -123 51 -100 164 16 83 184 416 218 434 33 16 64 11 68 -12z"/>
<path d="M8209 13253 c-100 -83 -499 -470 -499 -484 0 -3 46 -9 103 -13 56 -3
141 -9 190 -13 71 -4 87 -3 87 8 0 8 52 142 115 299 63 156 113 285 112 287
-2 1 -50 -36 -108 -84z"/>
<path d="M7465 12709 c-122 -20 -195 -75 -195 -150 0 -22 10 -59 21 -82 l22
-42 128 134 c71 74 128 135 126 136 -11 9 -61 11 -102 4z"/>
<path d="M7704 12686 c-70 -17 -93 -33 -230 -164 l-119 -113 43 -39 c96 -86
286 -163 498 -203 l32 -6 6 62 c9 83 28 155 83 320 25 76 42 141 39 145 -13
13 -300 12 -352 -2z"/>
<path d="M8020 12095 c0 -19 27 -55 41 -55 17 0 49 35 49 52 0 5 -20 8 -45 8
-25 0 -45 -2 -45 -5z"/>
<path d="M6465 12700 c-56 -23 -104 -118 -140 -277 -14 -59 -28 -151 -31 -203
l-7 -95 33 30 c56 53 126 212 165 380 19 83 35 156 35 163 0 14 -25 15 -55 2z"/>
<path d="M9128 12573 c-38 -15 -42 -33 -9 -33 10 0 26 11 35 25 9 14 15 25 14
24 -2 0 -20 -7 -40 -16z"/>
<path d="M11135 11071 c-143 -43 -355 -142 -355 -167 0 -22 166 -18 265 5 79
19 312 104 328 120 5 5 -6 20 -23 35 -27 22 -41 26 -93 25 -34 0 -89 -9 -122
-18z"/>
<path d="M3965 11566 c-50 -50 -43 -171 20 -361 48 -143 92 -232 108 -216 18
18 13 211 -7 301 -26 123 -79 300 -88 300 -5 0 -20 -11 -33 -24z"/>
<path d="M4220 11155 c0 -19 197 -392 250 -472 65 -99 154 -203 175 -203 45 0
49 80 9 198 -36 109 -77 175 -163 265 -84 88 -271 234 -271 212z"/>
<path d="M11694 10731 c15 -17 22 -18 49 -8 l32 11 -25 7 c-14 4 -36 7 -49 8
-23 1 -23 0 -7 -18z"/>
<path d="M2114 10312 c-28 -10 -69 -32 -92 -50 -48 -39 -132 -130 -132 -144 0
-13 151 -232 250 -365 l77 -102 7 75 c8 83 14 106 26 99 5 -3 6 -54 4 -113
l-5 -107 93 -110 c104 -124 247 -275 259 -275 4 0 20 26 36 58 27 56 28 61 28
222 0 228 -29 359 -122 550 -82 167 -220 281 -341 280 -20 -1 -60 -9 -88 -18z"/>
<path d="M2260 9456 c0 -33 51 -171 82 -218 37 -58 83 -88 135 -88 22 0 42 3
45 6 5 4 -166 212 -253 309 -6 5 -9 2 -9 -9z"/>
<path d="M12035 9340 c-63 -9 -132 -43 -140 -69 -7 -23 8 -56 32 -70 13 -7 28
1 66 34 27 23 75 56 107 73 32 16 56 33 53 36 -8 7 -51 6 -118 -4z"/>
<path d="M12192 9311 c-83 -29 -180 -82 -208 -112 -14 -16 -9 -18 58 -29 89
-15 278 -7 362 15 105 28 146 66 111 105 -24 27 -61 33 -89 15 -21 -14 -27
-14 -77 10 -30 14 -58 25 -64 25 -5 0 -47 -13 -93 -29z"/>
</g>
</svg>
